<svg id="Capa_1" data-name="Capa 1" xmlns="http://www.w3.org/2000/svg" viewBox="0 0 390.3 512"><defs><style>.cls-1{fill:#fff;}</style></defs><title>holly</title><path class="cls-1" d="M375,331H315a134.77,134.77,0,0,0-105,50.25v-91.6a125.37,125.37,0,0,1,81.19-62.95,59.92,59.92,0,1,0-17.89-26.11A155.11,155.11,0,0,0,210,239.5v-91a75,75,0,1,0-30,0v52.76A134.81,134.81,0,0,0,75,151H15A15,15,0,0,0,0,166H0c0,74.44,60.56,135,135,135h45V419.5a155.11,155.11,0,0,0-63.3-38.91A60.16,60.16,0,1,0,98.81,406.7,125.37,125.37,0,0,1,180,469.65V497a15,15,0,0,0,30,0V481h45c74.44,0,135-60.56,135-135a15,15,0,0,0-15-15ZM96.68,238.48,145.46,271H135A105.16,105.16,0,0,1,31.07,181H75a105.2,105.2,0,0,1,100.27,73.82l-62-41.3a15,15,0,0,0-16.64,25ZM255,451H244.54l48.78-32.52a15,15,0,1,0-16.64-25l-62,41.3C228,392.1,268,360.8,315,360.8h43.93C351.63,411.62,307.8,451,255,451Z" transform="translate(0.3 0)"/></svg>